HIERARCHY
ROOT Hips
{
	OFFSET -3.958830 18.904000 13.208200
	CHANNELS 6 Xposition Yposition Zposition Zrotation Yrotation Xrotation 
	JOINT LHipJoint
	{
		OFFSET 0.000000 0.000000 0.000000
		CHANNELS 3 Zrotation Yrotation Xrotation
		JOINT LeftUpLeg
		{
			OFFSET 1.800000 -1.400000 0.085000
			CHANNELS 3 Zrotation Yrotation Xrotation
			JOINT LeftLeg
			{
				OFFSET 2.215000 -6.000000 0.000000
				CHANNELS 3 Zrotation Yrotation Xrotation
				JOINT LeftFoot
				{
					OFFSET 2.500000 -6.900000 0.000000
					CHANNELS 3 Zrotation Yrotation Xrotation
					JOINT LeftToeBase
					{
						OFFSET 0.200000 -0.500000 1.950000
						CHANNELS 3 Zrotation Yrotation Xrotation
						End Site
						{
							OFFSET 0.000000 0.000000 0.000000
						}
					}
				}
			}
		}
	}
	JOINT RHipJoint
	{
		OFFSET 0.000000 0.000000 0.000000
		CHANNELS 3 Zrotation Yrotation Xrotation
		JOINT RightUpLeg
		{
			OFFSET -1.800000 -1.400000 0.085000
			CHANNELS 3 Zrotation Yrotation Xrotation
			JOINT RightLeg
			{
				OFFSET -2.215000 -6.000000 0.000000
				CHANNELS 3 Zrotation Yrotation Xrotation
				JOINT RightFoot
				{
					OFFSET -2.500000 -6.900000 0.000000
					CHANNELS 3 Zrotation Yrotation Xrotation
					JOINT RightToeBase
					{
						OFFSET -0.200000 -0.500000 1.950000
						CHANNELS 3 Zrotation Yrotation Xrotation
						End Site
						{
							OFFSET 0.000000 0.000000 0.000000
						}
					}
				}
			}
		}
	}
	JOINT LowerBack
	{
		OFFSET 0.000000 0.000000 0.000000
		CHANNELS 3 Zrotation Yrotation Xrotation
		JOINT Spine
		{
			OFFSET -0.087000 1.940000 -0.288900
			CHANNELS 3 Zrotation Yrotation Xrotation
			JOINT Spine1
			{
				OFFSET 0.000000 1.950000 0.060000
				CHANNELS 3 Zrotation Yrotation Xrotation
				JOINT Neck
				{
					OFFSET 0.000000 0.000000 0.000000
					CHANNELS 3 Zrotation Yrotation Xrotation
					JOINT Neck1
					{
						OFFSET 0.000000 1.600000 0.340000
						CHANNELS 3 Zrotation Yrotation Xrotation
						JOINT Head
						{
							OFFSET 0.000000 1.667000 -0.240000
							CHANNELS 3 Zrotation Yrotation Xrotation
							End Site
							{
								OFFSET 0.000000 0.000000 0.000000
							}
						}
					}
				}
				JOINT LeftShoulder
				{
					OFFSET 0.000000 0.000000 0.000000
					CHANNELS 3 Zrotation Yrotation Xrotation
					JOINT LeftArm
					{
						OFFSET 2.700000 1.550000 -0.730000
						CHANNELS 3 Zrotation Yrotation Xrotation
						JOINT LeftForeArm
						{
							OFFSET 5.450000 0.000000 0.000000
							CHANNELS 3 Zrotation Yrotation Xrotation
							JOINT LeftHand
							{
								OFFSET 3.450000 0.000000 0.000000
								CHANNELS 3 Zrotation Yrotation Xrotation
								JOINT LeftHandIndex1
								{
									OFFSET 0.750000 0.000000 0.000000
									CHANNELS 3 Zrotation Yrotation Xrotation
									End Site
									{
										OFFSET 0.000000 0.000000 0.000000
									}
								}
							}
						}
					}
				}
				JOINT RightShoulder
				{
					OFFSET 0.000000 0.000000 0.000000
					CHANNELS 3 Zrotation Yrotation Xrotation
					JOINT RightArm
					{
						OFFSET -2.700000 1.550000 -0.730000
						CHANNELS 3 Zrotation Yrotation Xrotation
						JOINT RightForeArm
						{
							OFFSET -5.450000 0.000000 0.000000
							CHANNELS 3 Zrotation Yrotation Xrotation
							JOINT RightHand
							{
								OFFSET -3.450000 0.000000 0.000000
								CHANNELS 3 Zrotation Yrotation Xrotation
								JOINT RightHandIndex1
								{
									OFFSET -0.750000 0.000000 0.000000
									CHANNELS 3 Zrotation Yrotation Xrotation
									End Site
									{
										OFFSET 0.000000 0.000000 0.000000
									}
								}
							}
						}
					}
				}
			}
		}
	}
}
MOTION
Frames: 7
Frame Time: 0.016667
-1.433310 16.682490 -5.786810 -1.082127 -21.513593 -5.390053 -15.640130 12.064483 4.396023 -24.679312 -2.391173 -1.403782 -12.534486 9.774776 29.582414 -0.385507 7.826853 2.239057 -0.031210 -0.431750 -0.353630 18.301891 -7.949751 4.310477 14.752049 11.400753 -32.201302 20.351147 -13.869839 39.699301 -1.362206 -6.919381 2.038751 -0.066330 1.124060 0.499590 -3.094731 -4.326396 -9.047365 4.539125 -5.096372 38.703588 -2.515783 -2.838495 6.809660 -0.648565 -10.779222 -8.602257 -27.984583 10.795296 37.342038 4.498880 -1.000870 -30.989340 -13.609977 -8.736428 -0.887095 25.544239 4.734274 -3.591319 87.352012 -35.931664 -30.016747 -4.258533 1.876185 1.414580 0.247840 0.102700 0.425620 14.674859 14.831118 6.542108 -16.134688 -18.254098 -8.312149 -60.553926 24.839874 -11.544442 1.927320 -0.981165 -0.836490 1.043900 0.603040 -0.036180 
-1.424560 16.583880 -5.714560 -1.337780 -21.959217 -6.675441 -15.662823 12.052072 4.294996 -22.951582 -1.948289 0.811157 -16.224360 11.483058 29.410287 -0.179960 8.287783 2.072718 0.093200 -0.268990 -0.216070 18.299802 -7.831467 4.446631 15.670057 12.538037 -31.634516 19.719218 -14.245053 42.524388 -1.555621 -7.297078 1.925718 -0.013830 0.974160 0.467970 -3.069910 -4.325011 -9.127961 4.831816 -4.636648 40.492764 -2.433370 -2.327765 7.552061 -0.433904 -10.033171 -7.941405 -27.092651 10.249258 40.455955 4.067720 -0.793990 -35.657980 -14.012522 -9.098453 -1.530373 30.971445 5.976415 -2.866728 83.113105 -36.892118 -27.421201 -4.145418 1.863378 1.470170 0.139390 0.223050 0.442670 14.419995 14.899671 6.043408 -19.749609 -20.831233 -7.613289 -64.155190 26.593234 -13.183938 2.021721 -0.949778 -0.787180 1.032580 0.471270 -0.050580 
-1.421850 16.514670 -5.613510 -1.565050 -21.840313 -6.567710 -15.656210 11.959603 4.183068 -21.433103 -1.767397 1.861080 -18.924597 12.782389 29.608043 0.005486 8.709505 1.919866 0.215960 -0.083530 -0.162900 18.327220 -7.764706 4.563789 15.468982 13.514624 -32.624259 20.404111 -14.862652 44.181194 -1.699889 -7.741015 1.767550 0.073620 0.945400 0.558950 -3.150853 -4.160429 -9.138826 5.651920 -4.485225 40.323881 -2.675708 -2.191029 8.635676 -0.703346 -9.173358 -6.819624 -23.758857 9.431552 38.957733 2.446430 -0.036740 -35.691120 -12.815608 -7.768379 -2.224626 31.573062 4.492323 -2.854031 83.027512 -38.638328 -28.710897 -4.134888 1.961869 1.375090 0.181390 0.276410 0.494390 13.492297 12.877694 4.788356 -18.256710 -22.936417 -7.995970 -72.679257 32.868105 -20.138474 1.941972 -1.039564 -0.671310 0.964820 0.389050 -0.005120 
-1.417630 16.559100 -5.444450 -1.739048 -22.135822 -4.954958 -15.622557 11.941740 4.062699 -19.976191 -1.384239 1.883782 -20.468364 13.207815 28.436947 0.035557 8.698526 1.891927 0.252240 -0.033580 -0.137040 18.362906 -7.770219 4.640869 15.156356 14.126912 -33.226359 20.021496 -14.713582 44.649986 -1.723085 -7.758302 1.734033 0.080070 0.879030 0.592850 -3.275664 -4.012555 -9.106417 6.994852 -5.098528 37.129654 -3.385171 -2.745257 9.853623 -0.309649 -9.406243 -7.191804 -24.914380 10.547817 40.509005 0.465040 0.496840 -36.760840 -12.732087 -7.548817 -1.588134 28.326667 6.508797 -2.428991 89.150864 -43.163300 -36.130883 -4.056443 1.907417 1.367620 0.155500 0.318110 0.484000 12.746769 12.675134 4.539429 -16.104031 -20.630277 -8.955867 -80.807277 40.014684 -29.127637 1.809711 -0.934108 -0.613080 0.909220 0.371990 -0.002960 
-1.377940 16.680080 -5.264900 -2.397224 -22.452441 -3.986924 -15.517184 11.923785 3.991240 -18.914943 -0.976085 2.135169 -20.366993 13.242701 28.027435 0.061322 8.628821 1.929188 0.194970 -0.117960 -0.162050 18.442744 -7.982357 4.606009 15.313657 13.858003 -31.829852 18.958885 -14.135404 43.874196 -1.624746 -7.523465 1.823274 0.016330 0.859700 0.570240 -3.556305 -3.596876 -9.016700 9.893170 -6.359941 35.469243 -4.959644 -3.413921 10.627439 0.617715 -9.773664 -8.347641 -25.767266 10.459987 41.046433 -1.734870 0.201280 -35.349700 -12.875445 -7.442167 -0.088764 21.430490 9.454077 -2.615579 100.660998 -46.674932 -49.939887 -3.977773 1.818731 1.347660 0.149000 0.282390 0.463350 11.329327 12.590695 5.062468 -11.413385 -18.850961 -10.078009 -89.441490 48.279909 -42.010232 1.595179 -0.637926 -0.614430 0.860690 0.378530 -0.009830 
-1.377860 16.854370 -5.112610 -2.431157 -22.500633 -3.154467 -15.421368 11.911580 3.898322 -17.546739 -1.010766 1.625816 -20.180030 13.539500 28.956302 0.216858 8.768896 1.969485 0.139870 -0.091340 -0.328980 18.517410 -8.234943 4.500332 15.867707 13.009604 -30.582218 16.067349 -12.855156 43.451695 -1.455159 -7.256143 1.971402 0.035880 1.059280 0.585420 -3.812997 -3.208340 -8.822660 11.393523 -7.275248 34.243404 -6.275412 -4.107436 11.318447 0.352754 -11.145247 -8.949107 -26.730690 10.209725 34.597261 -0.847810 -0.359430 -28.510800 -11.130942 -4.039279 1.086900 9.307179 6.793673 -2.747159 109.557577 -51.861856 -68.441507 -4.044754 1.758378 1.123470 0.307440 0.174280 0.567350 10.262818 9.852005 4.979320 -4.743710 -15.923963 -9.907196 -99.097038 56.616758 -59.979424 1.349475 -0.122870 -0.575890 0.887910 0.368230 0.130290 
-1.396860 17.063640 -4.955630 -2.467937 -21.670196 -2.501076 -15.325414 12.028703 3.772225 -15.027126 -1.181477 1.068888 -19.922668 14.162948 30.815659 0.439927 9.029682 1.936957 0.050930 -0.123550 -0.548410 18.574262 -8.500039 4.357345 16.307146 11.819567 -28.939894 13.031078 -11.358741 41.941447 -1.227389 -6.793690 2.190145 -0.007890 1.213650 0.593640 -4.002475 -3.002897 -8.611870 12.341107 -8.416362 33.471631 -7.297584 -5.107556 11.039809 0.126865 -12.427386 -10.489715 -28.388119 10.245568 29.071822 2.119720 -1.550290 -21.678070 -8.521485 -0.707611 2.863847 -6.660669 3.718741 -2.825851 117.006797 -55.464337 -86.681750 -4.162811 1.973534 0.920100 0.417520 0.054610 0.647640 8.586503 7.136724 5.777447 3.673750 -10.440006 -8.252821 -106.359794 64.642071 -79.849495 1.347764 0.860239 -0.512190 0.835470 0.381550 0.263500 
